<svg width="56" height="56" viewBox="0 0 56 56" fill="none" xmlns="http://www.w3.org/2000/svg">
<rect width="56" height="56" fill="#ECEBEB"/>
<path d="M15.1114 22.8157C15.1114 23.6305 15.7781 24.2972 16.5929 24.2972C17.4077 24.2972 18.0744 23.6305 18.0744 22.8157V19.8527H21.0374C21.8522 19.8527 22.5189 19.1861 22.5189 18.3712C22.5189 17.5564 21.8522 16.8898 21.0374 16.8898H18.0744V13.9268C18.0744 13.112 17.4077 12.4453 16.5929 12.4453C15.7781 12.4453 15.1114 13.112 15.1114 13.9268V16.8898H12.1485C11.3337 16.8898 10.667 17.5564 10.667 18.3712C10.667 19.1861 11.3337 19.8527 12.1485 19.8527H15.1114V22.8157Z" fill="#B9B9B9"/>
<path d="M29.9259 36.1487C32.3805 36.1487 34.3703 34.1588 34.3703 31.7042C34.3703 29.2496 32.3805 27.2598 29.9259 27.2598C27.4713 27.2598 25.4814 29.2496 25.4814 31.7042C25.4814 34.1588 27.4713 36.1487 29.9259 36.1487Z" fill="#B9B9B9"/>
<path d="M41.778 19.8531H37.0817L35.2447 17.8531C34.9686 17.55 34.6323 17.3078 34.2573 17.142C33.8824 16.9762 33.4769 16.8904 33.0669 16.8901H23.5854C23.8373 17.3346 24.0002 17.8235 24.0002 18.3716C24.0002 20.0013 22.6669 21.3346 21.0373 21.3346H19.5558V22.8161C19.5558 24.4457 18.2224 25.779 16.5928 25.779C16.0447 25.779 15.5558 25.6161 15.1113 25.3642V40.5939C15.1113 42.2235 16.4447 43.5568 18.0743 43.5568H41.778C43.4076 43.5568 44.741 42.2235 44.741 40.5939V22.8161C44.741 21.1864 43.4076 19.8531 41.778 19.8531ZM29.9262 39.1124C25.8373 39.1124 22.5187 35.7939 22.5187 31.705C22.5187 27.6161 25.8373 24.2976 29.9262 24.2976C34.015 24.2976 37.3336 27.6161 37.3336 31.705C37.3336 35.7939 34.015 39.1124 29.9262 39.1124Z" fill="#B9B9B9"/>
</svg>
