<svg width="30" height="24" viewBox="0 0 30 24" fill="none" xmlns="http://www.w3.org/2000/svg">
<path fill-rule="evenodd" clip-rule="evenodd" d="M17.0534 0H11.6022V1.33333H10.2394V2.66667H3.42536V5.33333H5.71747C3.79076 7.7776 0 13.0842 0 17C0 18.8565 0.717903 20.637 1.99578 21.9497C3.27365 23.2625 5.00682 24 6.81401 24C8.6212 24 10.3544 23.2625 11.6322 21.9497C12.8204 20.7292 13.5244 19.1043 13.6174 17.3899L13.6464 17.3333H13.6203C13.6254 17.2226 13.628 17.1114 13.628 17C13.628 13.0842 9.83726 7.7776 7.91055 5.33333H22.0477C20.121 7.7776 16.3303 13.0842 16.3303 17C16.3303 18.8565 17.0482 20.637 18.326 21.9497C19.6039 23.2625 21.3371 24 23.1443 24C24.9514 24 26.6846 23.2625 27.9625 21.9497C29.1387 20.7414 29.8405 19.1369 29.9447 17.4415L30 17.3333H29.9505C29.9557 17.2226 29.9583 17.1114 29.9583 17C29.9583 13.0842 26.1675 7.7776 24.2408 5.33333H25.2302V2.66667H18.4162V1.33333H17.0534V0ZM1.37223 17.3333H12.2558C12.2621 17.2227 12.2652 17.1116 12.2652 17C12.2652 15.9445 11.9157 14.6665 11.3099 13.2772C10.7111 11.9041 9.9017 10.5115 9.07451 9.25203C8.25565 8.00524 7.43437 6.91156 6.81401 6.12555C6.19365 6.91156 5.37237 8.00524 4.55351 9.25203C3.72632 10.5115 2.91697 11.9041 2.31816 13.2772C1.71228 14.6665 1.3628 15.9445 1.3628 17C1.3628 17.1116 1.36596 17.2227 1.37223 17.3333ZM17.7025 17.3333H28.586C28.5923 17.2227 28.5955 17.1116 28.5955 17C28.5955 15.9445 28.246 14.6665 27.6401 13.2772C27.0413 11.9041 26.232 10.5115 25.4048 9.25203C24.5859 8.00524 23.7646 6.91156 23.1443 6.12555C22.5239 6.91156 21.7026 8.00524 20.8838 9.25203C20.0566 10.5115 19.2472 11.9041 18.6484 13.2772C18.0425 14.6665 17.6931 15.9445 17.6931 17C17.6931 17.1116 17.6962 17.2227 17.7025 17.3333Z" fill="#9B9B9B"/>
</svg>
