<svg width="17" height="17" viewBox="0 0 17 17" fill="none" xmlns="http://www.w3.org/2000/svg">
<path d="M4.81046 1.0001H2.52419C2.11995 1.0001 1.73226 1.15813 1.44642 1.43943C1.16058 1.72074 1 2.10226 1 2.50009V7.75005C1 8.14787 1.16058 8.5294 1.44642 8.81071C1.73226 9.09201 2.11995 9.25004 2.52419 9.25004H4.81046M10.1451 10.75V13.75C10.1451 14.3467 9.90424 14.919 9.47548 15.341C9.04672 15.7629 8.46519 16 7.85883 16L4.81046 9.25004V1.0001H13.4069C13.7744 0.996006 14.1311 1.12279 14.4112 1.35709C14.6913 1.59139 14.8759 1.91741 14.9311 2.27509L15.9827 9.02504C16.0159 9.24003 16.0012 9.45953 15.9396 9.66835C15.878 9.87717 15.771 10.0703 15.626 10.2344C15.481 10.3985 15.3015 10.5296 15.0999 10.6186C14.8983 10.7077 14.6795 10.7525 14.4586 10.75H10.1451Z" stroke="#E13C3C" stroke-linecap="round" stroke-linejoin="round"/>
</svg>
