<svg width="26" height="24" viewBox="0 0 26 24" fill="none" xmlns="http://www.w3.org/2000/svg">
<path d="M23.9952 2.12177C23.3599 1.44911 22.6056 0.915505 21.7754 0.551444C20.9451 0.187383 20.0553 0 19.1566 0C18.258 0 17.3681 0.187383 16.5379 0.551444C15.7077 0.915505 14.9534 1.44911 14.3181 2.12177L12.9997 3.51714L11.6812 2.12177C10.398 0.763676 8.65749 0.00070395 6.84269 0.000703964C5.0279 0.000703978 3.28743 0.763676 2.00418 2.12177C0.720924 3.47987 1.35213e-08 5.32185 0 7.24249C-1.35213e-08 9.16313 0.720924 11.0051 2.00418 12.3632L3.32264 13.7586L12.9997 24L22.6767 13.7586L23.9952 12.3632C24.6308 11.6909 25.1349 10.8926 25.4789 10.0139C25.8229 9.13531 26 8.19356 26 7.24249C26 6.29142 25.8229 5.34967 25.4789 4.47104C25.1349 3.59241 24.6308 2.79412 23.9952 2.12177Z" fill="#9B9B9B"/>
</svg>
