<svg width="17" height="17" viewBox="0 0 17 17" fill="none" xmlns="http://www.w3.org/2000/svg">
<path d="M4.81046 15.9999H2.52419C2.11995 15.9999 1.73226 15.8419 1.44642 15.5606C1.16058 15.2793 1 14.8977 1 14.4999V9.24995C1 8.85213 1.16058 8.4706 1.44642 8.18929C1.73226 7.90799 2.11995 7.74996 2.52419 7.74996H4.81046M10.1451 6.24997V3.24999C10.1451 2.65325 9.90424 2.08096 9.47548 1.65901C9.04672 1.23705 8.46519 1 7.85883 1L4.81046 7.74996V15.9999H13.4069C13.7744 16.004 14.1311 15.8772 14.4112 15.6429C14.6913 15.4086 14.8759 15.0826 14.9311 14.7249L15.9827 7.97496C16.0159 7.75997 16.0012 7.54047 15.9396 7.33165C15.878 7.12283 15.771 6.92968 15.626 6.7656C15.481 6.60151 15.3015 6.47041 15.0999 6.38138C14.8983 6.29234 14.6795 6.2475 14.4586 6.24997H10.1451Z" stroke="#43924B" stroke-linecap="round" stroke-linejoin="round"/>
</svg>
