<svg aria-hidden="true" style="position: absolute; width: 0; height: 0; overflow: hidden;" version="1.1" xmlns="http://www.w3.org/2000/svg" xmlns:xlink="http://www.w3.org/1999/xlink">
<defs>
<symbol id="comparison" viewBox="0 0 40 32">
<path   d="M22.738 0v1.778h1.817v1.778h9.085v3.556h-1.319c2.569 3.259 7.623 10.335 7.623 15.556 0 0.149-0.003 0.297-0.010 0.444h0.066l-0.074 0.144c-0.139 2.261-1.075 4.4-2.643 6.011-1.704 1.75-4.015 2.734-6.424 2.734s-4.721-0.983-6.424-2.734c-1.704-1.75-2.661-4.124-2.661-6.6 0-5.221 5.054-12.297 7.623-15.556h-18.85c2.569 3.259 7.623 10.335 7.623 15.556 0 0.149-0.003 0.297-0.010 0.444h0.035l-0.039 0.075c-0.124 2.286-1.063 4.452-2.647 6.080-1.704 1.75-4.015 2.734-6.424 2.734s-4.72-0.983-6.424-2.734c-1.704-1.75-2.661-4.124-2.661-6.6 0-5.221 5.054-12.297 7.623-15.556h-3.056v-3.556h9.085v-1.778h1.817v-1.778h7.268zM1.83 23.111h14.511c0.008-0.147 0.013-0.296 0.013-0.444 0-1.407-0.466-3.111-1.274-4.964-0.798-1.831-1.878-3.688-2.981-5.367-1.092-1.662-2.187-3.121-3.014-4.169-0.827 1.048-1.922 2.506-3.014 4.169-1.103 1.679-2.182 3.536-2.98 5.367-0.808 1.852-1.274 3.556-1.274 4.964 0 0.149 0.004 0.297 0.013 0.444zM23.603 23.111h14.511c0.008-0.147 0.013-0.296 0.013-0.444 0-1.407-0.466-3.111-1.274-4.964-0.798-1.831-1.877-3.688-2.98-5.367-1.092-1.662-2.187-3.121-3.014-4.169-0.827 1.048-1.922 2.506-3.014 4.169-1.103 1.679-2.182 3.536-2.981 5.367-0.808 1.852-1.274 3.556-1.274 4.964 0 0.149 0.004 0.297 0.013 0.444z"></path>
</symbol>
<symbol id="heart" viewBox="0 0 35 32">
<path     d="M31.994 2.829c-0.847-0.897-1.853-1.608-2.96-2.094s-2.293-0.735-3.492-0.735c-1.198 0-2.385 0.25-3.492 0.735s-2.113 1.197-2.96 2.094l-1.758 1.861-1.758-1.861c-1.711-1.811-4.032-2.828-6.451-2.828s-4.74 1.017-6.451 2.828c-1.711 1.811-2.672 4.267-2.672 6.828s0.961 5.017 2.672 6.828l14.661 15.516 14.661-15.516c0.847-0.896 1.52-1.961 1.978-3.132s0.695-2.427 0.695-3.695-0.236-2.524-0.695-3.695c-0.459-1.171-1.131-2.236-1.978-3.132z"></path>
</symbol>
<symbol id="star" viewBox="0 0 32 32">
<path   d="M16.941 0l3.803 11.706h12.309l-9.958 7.235 3.804 11.706-9.958-7.235-9.958 7.235 3.804-11.706-9.958-7.235h12.308l3.804-11.706z"></path>
</symbol>
<symbol id="arrow_down" viewBox="0 0 20 20">
<path d="M6 9L0.803849 -9.78799e-07L11.1962 -7.02746e-08L6 9Z" fill="#C4C4C4"/>
</symbol>
<symbol id="arrow_slim" viewBox="0 0 18 10">
<path d="M1 1L9 9L17 1" fill="none"  stroke-width="1.5" stroke-linecap="round" stroke-linejoin="round"/>
</symbol>
<symbol id="arrow_offers_l" fill="none"  viewBox="0 0 9 12">
<path d="M-2.62268e-07 6L9 0.803848L9 11.1962L-2.62268e-07 6Z" fill="#C4C4C4"/>
</symbol>
<symbol id="arrow_offers_r" fill="none" viewBox="0 0 9 12">
<path d="M9 6L4.89399e-07 0.803848L3.51373e-08 11.1962L9 6Z" fill="#C4C4C4"/>
</symbol>
<symbol id="like" viewBox="0 0 17 17" fill="none">
<path d="M4.81046 15.9999H2.52419C2.11995 15.9999 1.73226 15.8419 1.44642 15.5606C1.16058 15.2793 1 14.8977 1 14.4999V9.24995C1 8.85213 1.16058 8.4706 1.44642 8.18929C1.73226 7.90799 2.11995 7.74996 2.52419 7.74996H4.81046M10.1451 6.24997V3.24999C10.1451 2.65325 9.90424 2.08096 9.47548 1.65901C9.04672 1.23705 8.46519 1 7.85883 1L4.81046 7.74996V15.9999H13.4069C13.7744 16.004 14.1311 15.8772 14.4112 15.6429C14.6913 15.4086 14.8759 15.0826 14.9311 14.7249L15.9827 7.97496C16.0159 7.75997 16.0012 7.54047 15.9396 7.33165C15.878 7.12283 15.771 6.92968 15.626 6.7656C15.481 6.60151 15.3015 6.47041 15.0999 6.38138C14.8983 6.29234 14.6795 6.2475 14.4586 6.24997H10.1451Z"  stroke-linecap="round" stroke-linejoin="round"/>
</symbol>
<symbol id="dislike" viewBox="0 0 17 17" fill="none">
<path d="M4.81046 1.0001H2.52419C2.11995 1.0001 1.73226 1.15813 1.44642 1.43943C1.16058 1.72074 1 2.10226 1 2.50009V7.75005C1 8.14787 1.16058 8.5294 1.44642 8.81071C1.73226 9.09201 2.11995 9.25004 2.52419 9.25004H4.81046M10.1451 10.75V13.75C10.1451 14.3467 9.90424 14.919 9.47548 15.341C9.04672 15.7629 8.46519 16 7.85883 16L4.81046 9.25004V1.0001H13.4069C13.7744 0.996006 14.1311 1.12279 14.4112 1.35709C14.6913 1.59139 14.8759 1.91741 14.9311 2.27509L15.9827 9.02504C16.0159 9.24003 16.0012 9.45953 15.9396 9.66835C15.878 9.87717 15.771 10.0703 15.626 10.2344C15.481 10.3985 15.3015 10.5296 15.0999 10.6186C14.8983 10.7077 14.6795 10.7525 14.4586 10.75H10.1451Z"  stroke-linecap="round" stroke-linejoin="round"/>
</symbol>
<symbol id="arrow_analog_l" viewBox="0 0 9 16" fill="none">
<path d="M8 15L1 8L8 1" stroke="#333333" stroke-width="1.5" stroke-linecap="round" stroke-linejoin="round"/>
</symbol>
<symbol id="arrow_analog_r" viewBox="0 0 9 16" fill="none">
<path d="M1 15L8 8L1 1" stroke="#333333" stroke-width="1.5" stroke-linecap="round" stroke-linejoin="round"/>
</symbol>
<symbol id="cross" viewBox="0 0 19 19"  >
<path d="M11.1643 9.25008L18.7072 1.70718L17.293 0.292969L9.75008 7.83586L2.20718 0.292969L0.792969 1.70718L8.33586 9.25008L0.792969 16.793L2.20718 18.2072L9.75008 10.6643L17.293 18.2072L18.7072 16.793L11.1643 9.25008Z"  />
</symbol>
<symbol id="info" viewBox="0 0 18 18" fill="none">
<path d="M18 9C18 13.9706 13.9706 18 9 18C4.02944 18 0 13.9706 0 9C0 4.02944 4.02944 0 9 0C13.9706 0 18 4.02944 18 9Z" fill="#F7C430"/>
<path d="M9.24219 11.7969H7.78906C7.79427 11.2969 7.83854 10.888 7.92188 10.5703C8.01042 10.2474 8.15365 9.95312 8.35156 9.6875C8.54948 9.42188 8.8125 9.11979 9.14062 8.78125C9.38021 8.53646 9.59896 8.30729 9.79688 8.09375C10 7.875 10.1641 7.64062 10.2891 7.39062C10.4141 7.13542 10.4766 6.83073 10.4766 6.47656C10.4766 6.11719 10.4115 5.80729 10.2812 5.54688C10.1562 5.28646 9.96875 5.08594 9.71875 4.94531C9.47396 4.80469 9.16927 4.73438 8.80469 4.73438C8.5026 4.73438 8.21615 4.78906 7.94531 4.89844C7.67448 5.00781 7.45573 5.17708 7.28906 5.40625C7.1224 5.63021 7.03646 5.92448 7.03125 6.28906H5.58594C5.59635 5.70052 5.74219 5.19531 6.02344 4.77344C6.3099 4.35156 6.69531 4.02865 7.17969 3.80469C7.66406 3.58073 8.20573 3.46875 8.80469 3.46875C9.46615 3.46875 10.0286 3.58854 10.4922 3.82812C10.9609 4.06771 11.3177 4.41146 11.5625 4.85938C11.8073 5.30208 11.9297 5.82812 11.9297 6.4375C11.9297 6.90625 11.8333 7.33854 11.6406 7.73438C11.4531 8.125 11.2109 8.49219 10.9141 8.83594C10.6172 9.17969 10.3021 9.50781 9.96875 9.82031C9.68229 10.0859 9.48958 10.3854 9.39062 10.7188C9.29167 11.0521 9.24219 11.4115 9.24219 11.7969ZM7.72656 14.2734C7.72656 14.0391 7.79948 13.8411 7.94531 13.6797C8.09115 13.5182 8.30208 13.4375 8.57812 13.4375C8.85938 13.4375 9.07292 13.5182 9.21875 13.6797C9.36458 13.8411 9.4375 14.0391 9.4375 14.2734C9.4375 14.4974 9.36458 14.6901 9.21875 14.8516C9.07292 15.013 8.85938 15.0938 8.57812 15.0938C8.30208 15.0938 8.09115 15.013 7.94531 14.8516C7.79948 14.6901 7.72656 14.4974 7.72656 14.2734Z" fill="#424242"/>
</symbol>

<symbol id="tabl_card" viewBox="0 0 32 32">
<path   d="M0 0h6.957v6.957h-6.957v-6.957z"></path>
<path   d="M0 12.522h6.957v6.957h-6.957v-6.957z"></path>
<path   d="M0 25.043h6.957v6.957h-6.957v-6.957z"></path>
<path   d="M12.522 0h6.957v6.957h-6.957v-6.957z"></path>
<path   d="M12.522 12.522h6.957v6.957h-6.957v-6.957z"></path>
<path   d="M12.522 25.043h6.957v6.957h-6.957v-6.957z"></path>
<path   d="M25.043 0h6.957v6.957h-6.957v-6.957z"></path>
<path   d="M25.043 12.522h6.957v6.957h-6.957v-6.957z"></path>
<path   d="M25.043 25.043h6.957v6.957h-6.957v-6.957z"></path>
</symbol>
<symbol id="row_card" viewBox="0 0 35 32">
<path   d="M0 0h6.957v6.957h-6.957v-6.957z"></path>
<path   d="M0 12.522h6.957v6.957h-6.957v-6.957z"></path>
<path   d="M0 25.043h6.957v6.957h-6.957v-6.957z"></path>
<path   d="M12.522 0h22.261v6.957h-22.261v-6.957z"></path>
<path   d="M12.522 12.522h22.261v6.957h-22.261v-6.957z"></path>
<path   d="M12.522 25.043h22.261v6.957h-22.261v-6.957z"></path>
</symbol>

<symbol id="voronka" viewBox="0 0 16 14" fill="none">
<path d="M16 0H0L6.4 7.35778V12.4444L9.6 14V7.35778L16 0Z" fill="#333333"/>
</symbol>

</defs>
</svg>
