<svg width="18" height="18" viewBox="0 0 18 18" fill="none" xmlns="http://www.w3.org/2000/svg">
<path d="M18 9C18 13.9706 13.9706 18 9 18C4.02944 18 0 13.9706 0 9C0 4.02944 4.02944 0 9 0C13.9706 0 18 4.02944 18 9Z" fill="#F7C430"/>
<path d="M9.24219 11.7969H7.78906C7.79427 11.2969 7.83854 10.888 7.92188 10.5703C8.01042 10.2474 8.15365 9.95312 8.35156 9.6875C8.54948 9.42188 8.8125 9.11979 9.14062 8.78125C9.38021 8.53646 9.59896 8.30729 9.79688 8.09375C10 7.875 10.1641 7.64062 10.2891 7.39062C10.4141 7.13542 10.4766 6.83073 10.4766 6.47656C10.4766 6.11719 10.4115 5.80729 10.2812 5.54688C10.1562 5.28646 9.96875 5.08594 9.71875 4.94531C9.47396 4.80469 9.16927 4.73438 8.80469 4.73438C8.5026 4.73438 8.21615 4.78906 7.94531 4.89844C7.67448 5.00781 7.45573 5.17708 7.28906 5.40625C7.1224 5.63021 7.03646 5.92448 7.03125 6.28906H5.58594C5.59635 5.70052 5.74219 5.19531 6.02344 4.77344C6.3099 4.35156 6.69531 4.02865 7.17969 3.80469C7.66406 3.58073 8.20573 3.46875 8.80469 3.46875C9.46615 3.46875 10.0286 3.58854 10.4922 3.82812C10.9609 4.06771 11.3177 4.41146 11.5625 4.85938C11.8073 5.30208 11.9297 5.82812 11.9297 6.4375C11.9297 6.90625 11.8333 7.33854 11.6406 7.73438C11.4531 8.125 11.2109 8.49219 10.9141 8.83594C10.6172 9.17969 10.3021 9.50781 9.96875 9.82031C9.68229 10.0859 9.48958 10.3854 9.39062 10.7188C9.29167 11.0521 9.24219 11.4115 9.24219 11.7969ZM7.72656 14.2734C7.72656 14.0391 7.79948 13.8411 7.94531 13.6797C8.09115 13.5182 8.30208 13.4375 8.57812 13.4375C8.85938 13.4375 9.07292 13.5182 9.21875 13.6797C9.36458 13.8411 9.4375 14.0391 9.4375 14.2734C9.4375 14.4974 9.36458 14.6901 9.21875 14.8516C9.07292 15.013 8.85938 15.0938 8.57812 15.0938C8.30208 15.0938 8.09115 15.013 7.94531 14.8516C7.79948 14.6901 7.72656 14.4974 7.72656 14.2734Z" fill="#424242"/>
</svg>
 